<?xml version="1.0" standalone="no"?>
<!DOCTYPE svg PUBLIC "-//W3C//DTD SVG 20010904//EN"
 "http://www.w3.org/TR/2001/REC-SVG-20010904/DTD/svg10.dtd">
<svg version="1.0" xmlns="http://www.w3.org/2000/svg"
 width="1532.000000pt" height="1219.000000pt" viewBox="0 0 1532.000000 1219.000000"
 preserveAspectRatio="xMidYMid meet">

<g transform="translate(0.000000,1219.000000) scale(0.100000,-0.100000)"
fill="#000000" stroke="none">
<path d="M6217 9941 c-253 -195 -585 -470 -812 -671 -375 -333 -919 -870 -882
-870 9 0 76 9 149 19 436 64 1054 120 1678 153 307 16 1288 16 1595 0 1740
-91 3269 -378 4850 -912 165 -56 308 -106 317 -111 10 -5 18 -8 18 -5 0 2 -72
52 -160 110 -1580 1050 -3394 1807 -5385 2250 -458 102 -1026 207 -1114 206
-31 -1 -67 -24 -254 -169z"/>
</g>
</svg>
